<svg width="146" height="19" viewBox="0 0 146 19" fill="none" xmlns="http://www.w3.org/2000/svg">
<path d="M7.592 18.24C5.304 18.24 3.504 17.688 2.192 16.584C0.896 15.48 0.208 13.864 0.128 11.736C0.112 11.304 0.104 10.6 0.104 9.624C0.104 8.632 0.112 7.912 0.128 7.464C0.208 5.384 0.904 3.784 2.216 2.664C3.544 1.528 5.336 0.959999 7.592 0.959999C9.016 0.959999 10.288 1.192 11.408 1.656C12.544 2.12 13.44 2.792 14.096 3.672C14.752 4.552 15.096 5.592 15.128 6.792C15.128 6.936 15.072 7.056 14.96 7.152C14.864 7.248 14.744 7.296 14.6 7.296H11.192C10.968 7.296 10.8 7.256 10.688 7.176C10.592 7.08 10.504 6.912 10.424 6.672C10.2 5.888 9.856 5.344 9.392 5.04C8.944 4.72 8.344 4.56 7.592 4.56C5.784 4.56 4.848 5.568 4.784 7.584C4.768 8.016 4.76 8.68 4.76 9.576C4.76 10.472 4.768 11.152 4.784 11.616C4.848 13.632 5.784 14.64 7.592 14.64C8.328 14.64 8.928 14.48 9.392 14.16C9.872 13.84 10.216 13.296 10.424 12.528C10.488 12.288 10.576 12.128 10.688 12.048C10.8 11.952 10.968 11.904 11.192 11.904H14.6C14.744 11.904 14.864 11.952 14.96 12.048C15.072 12.144 15.128 12.264 15.128 12.408C15.096 13.608 14.752 14.648 14.096 15.528C13.44 16.408 12.544 17.08 11.408 17.544C10.288 18.008 9.016 18.24 7.592 18.24ZM23.3133 18.24C21.2973 18.24 19.7453 17.776 18.6573 16.848C17.5853 15.904 17.0013 14.568 16.9053 12.84C16.8893 12.632 16.8813 12.272 16.8813 11.76C16.8813 11.248 16.8893 10.888 16.9053 10.68C17.0013 8.984 17.6013 7.664 18.7053 6.72C19.8253 5.76 21.3613 5.28 23.3133 5.28C25.2653 5.28 26.7933 5.76 27.8973 6.72C29.0173 7.664 29.6253 8.984 29.7213 10.68C29.7533 11.096 29.7693 11.456 29.7693 11.76C29.7693 12.064 29.7533 12.424 29.7213 12.84C29.6253 14.568 29.0333 15.904 27.9453 16.848C26.8733 17.776 25.3293 18.24 23.3133 18.24ZM23.3133 15.216C23.9693 15.216 24.4573 15.016 24.7773 14.616C25.0973 14.2 25.2813 13.568 25.3293 12.72C25.3453 12.56 25.3533 12.24 25.3533 11.76C25.3533 11.28 25.3453 10.96 25.3293 10.8C25.2813 9.968 25.0973 9.344 24.7773 8.928C24.4573 8.512 23.9693 8.304 23.3133 8.304C22.6573 8.304 22.1693 8.512 21.8493 8.928C21.5293 9.344 21.3453 9.968 21.2973 10.8L21.2733 11.76L21.2973 12.72C21.3453 13.568 21.5293 14.2 21.8493 14.616C22.1693 15.016 22.6573 15.216 23.3133 15.216ZM36.0508 18C35.8268 18 35.6508 17.952 35.5228 17.856C35.4108 17.744 35.3148 17.592 35.2348 17.4L30.6748 6.264C30.6588 6.216 30.6508 6.152 30.6508 6.072C30.6508 5.912 30.6988 5.784 30.7948 5.688C30.9068 5.576 31.0428 5.52 31.2028 5.52H34.0588C34.3948 5.52 34.6348 5.688 34.7788 6.024L37.3948 13.2L40.0348 6.024C40.0828 5.896 40.1628 5.784 40.2748 5.688C40.3868 5.576 40.5388 5.52 40.7308 5.52H43.6108C43.7548 5.52 43.8828 5.576 43.9948 5.688C44.1068 5.784 44.1628 5.912 44.1628 6.072L44.1148 6.264L39.5788 17.4C39.4988 17.592 39.3948 17.744 39.2668 17.856C39.1388 17.952 38.9628 18 38.7388 18H36.0508ZM51.2339 18C51.0739 18 50.9299 17.944 50.8019 17.832C50.6899 17.704 50.6339 17.56 50.6339 17.4V6.168L47.4179 8.64C47.2899 8.72 47.1699 8.76 47.0579 8.76C46.8659 8.76 46.6979 8.664 46.5539 8.472L45.0659 6.552C45.0019 6.44 44.9699 6.32 44.9699 6.192C44.9699 5.968 45.0579 5.792 45.2339 5.664L50.8019 1.368C50.9619 1.256 51.1459 1.2 51.3539 1.2H54.5219C54.6979 1.2 54.8419 1.256 54.9539 1.368C55.0819 1.48 55.1459 1.624 55.1459 1.8V17.4C55.1459 17.576 55.0819 17.72 54.9539 17.832C54.8419 17.944 54.6979 18 54.5219 18H51.2339ZM60.8077 18C60.6637 18 60.5437 17.952 60.4477 17.856C60.3517 17.744 60.3037 17.616 60.3037 17.472C60.3037 17.36 60.3357 17.256 60.3997 17.16L63.7597 12.576C63.5517 12.624 63.3357 12.64 63.1117 12.624C62.1357 12.56 61.2077 12.296 60.3277 11.832C59.4477 11.352 58.7277 10.696 58.1677 9.864C57.6237 9.016 57.3517 8.056 57.3517 6.984C57.3517 5.928 57.6157 4.944 58.1437 4.032C58.6877 3.104 59.4797 2.36 60.5197 1.8C61.5757 1.24 62.8397 0.959999 64.3117 0.959999C65.7997 0.959999 67.0797 1.216 68.1517 1.728C69.2237 2.24 70.0317 2.944 70.5757 3.84C71.1357 4.72 71.4157 5.712 71.4157 6.816C71.4157 7.696 71.2317 8.504 70.8637 9.24C70.5117 9.96 69.9757 10.808 69.2557 11.784L68.8237 12.384L65.0557 17.52C64.8317 17.84 64.5437 18 64.1917 18H60.8077ZM64.3597 9.36C65.0637 9.36 65.6397 9.144 66.0877 8.712C66.5517 8.28 66.7837 7.696 66.7837 6.96C66.7837 6.224 66.5517 5.64 66.0877 5.208C65.6237 4.776 65.0477 4.56 64.3597 4.56C63.6557 4.56 63.0717 4.776 62.6077 5.208C62.1597 5.64 61.9357 6.224 61.9357 6.96C61.9357 7.696 62.1597 8.28 62.6077 8.712C63.0557 9.144 63.6397 9.36 64.3597 9.36ZM80.1873 18.24C78.6353 18.24 77.3153 18.016 76.2273 17.568C75.1393 17.12 74.3153 16.528 73.7553 15.792C73.1953 15.056 72.8993 14.256 72.8673 13.392C72.8673 13.248 72.9153 13.128 73.0113 13.032C73.1233 12.936 73.2513 12.888 73.3953 12.888H76.5873C76.7793 12.888 76.9313 12.92 77.0433 12.984C77.1713 13.048 77.3073 13.16 77.4513 13.32C77.6593 13.704 77.9793 14.024 78.4113 14.28C78.8593 14.52 79.4513 14.64 80.1873 14.64C81.0513 14.64 81.7153 14.512 82.1793 14.256C82.6433 13.984 82.8753 13.616 82.8753 13.152C82.8753 12.816 82.7553 12.544 82.5153 12.336C82.2753 12.112 81.8913 11.92 81.3633 11.76C80.8353 11.584 80.0753 11.392 79.0833 11.184C77.1473 10.8 75.6993 10.216 74.7393 9.432C73.7793 8.648 73.2993 7.528 73.2993 6.072C73.2993 5.08 73.5713 4.2 74.1153 3.432C74.6753 2.648 75.4593 2.04 76.4673 1.608C77.4913 1.176 78.6753 0.959999 80.0193 0.959999C81.4273 0.959999 82.6433 1.208 83.6673 1.704C84.7073 2.184 85.4993 2.792 86.0433 3.528C86.6033 4.248 86.8993 4.96 86.9313 5.664C86.9313 5.808 86.8833 5.936 86.7873 6.048C86.6913 6.144 86.5713 6.192 86.4273 6.192H83.0673C82.7153 6.192 82.4433 6.048 82.2513 5.76C82.1553 5.424 81.9073 5.144 81.5073 4.92C81.1073 4.68 80.6113 4.56 80.0193 4.56C79.3473 4.56 78.8273 4.68 78.4593 4.92C78.0913 5.16 77.9073 5.512 77.9073 5.976C77.9073 6.44 78.1473 6.808 78.6273 7.08C79.1073 7.336 80.0033 7.6 81.3153 7.872C82.8193 8.144 84.0113 8.488 84.8913 8.904C85.7873 9.304 86.4433 9.832 86.8593 10.488C87.2913 11.128 87.5073 11.944 87.5073 12.936C87.5073 14.024 87.1953 14.968 86.5713 15.768C85.9473 16.568 85.0833 17.184 83.9793 17.616C82.8753 18.032 81.6113 18.24 80.1873 18.24ZM96.0997 18C92.7077 18 91.0117 16.408 91.0117 13.224V8.784H89.1157C88.9557 8.784 88.8117 8.728 88.6837 8.616C88.5717 8.488 88.5157 8.344 88.5157 8.184V6.12C88.5157 5.944 88.5717 5.8 88.6837 5.688C88.8117 5.576 88.9557 5.52 89.1157 5.52H91.0117V1.56C91.0117 1.384 91.0677 1.24 91.1797 1.128C91.3077 1.016 91.4517 0.959999 91.6117 0.959999H94.5637C94.7397 0.959999 94.8837 1.016 94.9957 1.128C95.1077 1.24 95.1637 1.384 95.1637 1.56V5.52H98.1637C98.3397 5.52 98.4837 5.576 98.5957 5.688C98.7237 5.8 98.7877 5.944 98.7877 6.12V8.184C98.7877 8.36 98.7237 8.504 98.5957 8.616C98.4837 8.728 98.3397 8.784 98.1637 8.784H95.1637V12.864C95.1637 13.424 95.2677 13.848 95.4757 14.136C95.6837 14.424 96.0197 14.568 96.4837 14.568H98.3797C98.5557 14.568 98.6997 14.632 98.8117 14.76C98.9237 14.872 98.9797 15.016 98.9797 15.192V17.4C98.9797 17.56 98.9237 17.704 98.8117 17.832C98.6997 17.944 98.5557 18 98.3797 18H96.0997ZM101.515 18C101.355 18 101.211 17.944 101.083 17.832C100.971 17.704 100.915 17.56 100.915 17.4V6.144C100.915 5.968 100.971 5.824 101.083 5.712C101.195 5.584 101.339 5.52 101.515 5.52H104.443C104.619 5.52 104.763 5.584 104.875 5.712C105.003 5.824 105.067 5.968 105.067 6.144V7.056C105.515 6.56 106.035 6.184 106.627 5.928C107.235 5.656 107.907 5.52 108.643 5.52H109.723C109.899 5.52 110.043 5.576 110.155 5.688C110.267 5.8 110.323 5.944 110.323 6.12V8.736C110.323 8.896 110.267 9.04 110.155 9.168C110.043 9.28 109.899 9.336 109.723 9.336H107.299C106.659 9.336 106.163 9.512 105.811 9.864C105.475 10.216 105.307 10.712 105.307 11.352V17.4C105.307 17.576 105.243 17.72 105.115 17.832C105.003 17.944 104.859 18 104.683 18H101.515ZM115.534 18.24C114.686 18.24 113.91 18.08 113.206 17.76C112.518 17.424 111.974 16.968 111.574 16.392C111.19 15.816 110.998 15.184 110.998 14.496C110.998 13.408 111.446 12.528 112.342 11.856C113.254 11.168 114.502 10.696 116.086 10.44L119.062 9.984V9.696C119.062 9.104 118.942 8.672 118.702 8.4C118.462 8.128 118.054 7.992 117.478 7.992C117.158 7.992 116.886 8.048 116.662 8.16C116.454 8.272 116.214 8.44 115.942 8.664C115.734 8.84 115.55 8.968 115.39 9.048C115.326 9.16 115.246 9.216 115.15 9.216H112.366C112.206 9.216 112.07 9.168 111.958 9.072C111.862 8.96 111.822 8.832 111.838 8.688C111.854 8.256 112.07 7.776 112.486 7.248C112.902 6.704 113.534 6.24 114.382 5.856C115.23 5.472 116.278 5.28 117.526 5.28C119.51 5.28 120.982 5.72 121.942 6.6C122.902 7.464 123.382 8.64 123.382 10.128V17.4C123.382 17.56 123.326 17.704 123.214 17.832C123.102 17.944 122.958 18 122.782 18H119.83C119.67 18 119.526 17.944 119.398 17.832C119.286 17.704 119.23 17.56 119.23 17.4V16.56C118.878 17.056 118.39 17.464 117.766 17.784C117.142 18.088 116.398 18.24 115.534 18.24ZM116.734 15.408C117.438 15.408 118.006 15.176 118.438 14.712C118.886 14.248 119.11 13.576 119.11 12.696V12.408L117.118 12.744C115.774 13 115.102 13.48 115.102 14.184C115.102 14.552 115.254 14.848 115.558 15.072C115.878 15.296 116.27 15.408 116.734 15.408ZM126.593 3.792C126.417 3.792 126.273 3.736 126.161 3.624C126.049 3.496 125.993 3.344 125.993 3.168V0.935999C125.993 0.759999 126.049 0.615999 126.161 0.503999C126.289 0.375999 126.433 0.311999 126.593 0.311999H129.593C129.769 0.311999 129.913 0.375999 130.025 0.503999C130.153 0.615999 130.217 0.759999 130.217 0.935999V3.168C130.217 3.344 130.153 3.496 130.025 3.624C129.913 3.736 129.769 3.792 129.593 3.792H126.593ZM126.593 18C126.433 18 126.289 17.944 126.161 17.832C126.049 17.704 125.993 17.56 125.993 17.4V6.12C125.993 5.944 126.049 5.8 126.161 5.688C126.289 5.576 126.433 5.52 126.593 5.52H129.593C129.769 5.52 129.913 5.576 130.025 5.688C130.153 5.8 130.217 5.944 130.217 6.12V17.4C130.217 17.576 130.153 17.72 130.025 17.832C129.913 17.944 129.769 18 129.593 18H126.593ZM133.554 18C133.394 18 133.25 17.944 133.122 17.832C133.01 17.704 132.954 17.56 132.954 17.4V6.12C132.954 5.944 133.01 5.8 133.122 5.688C133.25 5.576 133.394 5.52 133.554 5.52H136.506C136.682 5.52 136.826 5.576 136.938 5.688C137.05 5.8 137.106 5.944 137.106 6.12V7.032C137.538 6.504 138.09 6.08 138.762 5.76C139.45 5.44 140.234 5.28 141.114 5.28C142.026 5.28 142.834 5.488 143.538 5.904C144.258 6.32 144.818 6.936 145.218 7.752C145.634 8.568 145.842 9.552 145.842 10.704V17.4C145.842 17.56 145.786 17.704 145.674 17.832C145.562 17.944 145.418 18 145.242 18H142.05C141.874 18 141.722 17.944 141.594 17.832C141.482 17.72 141.426 17.576 141.426 17.4V10.848C141.426 10.128 141.25 9.576 140.898 9.192C140.562 8.808 140.066 8.616 139.41 8.616C138.77 8.616 138.266 8.816 137.898 9.216C137.53 9.6 137.346 10.144 137.346 10.848V17.4C137.346 17.56 137.29 17.704 137.178 17.832C137.066 17.944 136.922 18 136.746 18H133.554Z" fill="#2B6FF3"/>
</svg>
